/* XPM */ 
static char * black_background_56_2_xpm[] = {
"64 64 2 1",
" 	c #0066CC",
".	c #660099",
" .............   .............   .............   .............  ",
"............... ............... ............... ............... ",
"............... ............... ............... ............... ",
"............... ............... ............... ............... ",
"............... ............... ............... ............... ",
"............... ............... ............... ............... ",
" .............   .............   .............   .............  ",
"                                                                ",
"......   .............   .............   .............   .......",
"....... ............... ............... ............... ........",
"....... ............... ............... ............... ........",
"....... ............... ............... ............... ........",
"....... ............... ............... ............... ........",
"....... ............... ............... ............... ........",
"......   .............   .............   .............   .......",
"                                                                ",
" .............   .............   .............   .............  ",
"............... ............... ............... ............... ",
"............... ............... ............... ............... ",
"............... ............... ............... ............... ",
"............... ............... ............... ............... ",
"............... ............... ............... ............... ",
" .............   .............   .............   .............  ",
"                                                                ",
"......   .............   .............   .............   .......",
"....... ............... ............... ............... ........",
"....... ............... ............... ............... ........",
"....... ............... ............... ............... ........",
"....... ............... ............... ............... ........",
"....... ............... ............... ............... ........",
"......   .............   .............   .............   .......",
"                                                                ",
" .............   .............   .............   .............  ",
"............... ............... ............... ............... ",
"............... ............... ............... ............... ",
"............... ............... ............... ............... ",
"............... ............... ............... ............... ",
"............... ............... ............... ............... ",
" .............   .............   .............   .............  ",
"                                                                ",
"......   .............   .............   .............   .......",
"....... ............... ............... ............... ........",
"....... ............... ............... ............... ........",
"....... ............... ............... ............... ........",
"....... ............... ............... ............... ........",
"....... ............... ............... ............... ........",
"......   .............   .............   .............   .......",
"                                                                ",
" .............   .............   .............   .............  ",
"............... ............... ............... ............... ",
"............... ............... ............... ............... ",
"............... ............... ............... ............... ",
"............... ............... ............... ............... ",
"............... ............... ............... ............... ",
" .............   .............   .............   .............  ",
"                                                                ",
"......   .............   .............   .............   .......",
"....... ............... ............... ............... ........",
"....... ............... ............... ............... ........",
"....... ............... ............... ............... ........",
"....... ............... ............... ............... ........",
"....... ............... ............... ............... ........",
"......   .............   .............   .............   .......",
"                                                                "};